<svg xmlns="http://www.w3.org/2000/svg" viewBox="0 0 1200 800" width="1200" height="800" role="img"><title>Banheiro – CP-0016</title><rect width="1200" height="800" fill="#EEF3F6"/><rect y="560" width="1200" height="240" fill="#C9D3DA"/>
<g stroke="#D5DEE4" stroke-width="2" opacity=".6"><line x1="0" y1="560" x2="-80" y2="800"/><line x1="110" y1="560" x2="30" y2="800"/><line x1="220" y1="560" x2="140" y2="800"/><line x1="330" y1="560" x2="250" y2="800"/><line x1="440" y1="560" x2="360" y2="800"/><line x1="550" y1="560" x2="470" y2="800"/><line x1="660" y1="560" x2="580" y2="800"/><line x1="770" y1="560" x2="690" y2="800"/><line x1="880" y1="560" x2="800" y2="800"/><line x1="990" y1="560" x2="910" y2="800"/><line x1="1100" y1="560" x2="1020" y2="800"/><line x1="1210" y1="560" x2="1130" y2="800"/></g>
<rect y="552" width="1200" height="12" fill="#D5DEE4"/><g stroke="#D5DEE4" stroke-width="3"><line x1="0" y1="60" x2="1200" y2="60"/><line x1="0" y1="110" x2="1200" y2="110"/><line x1="0" y1="160" x2="1200" y2="160"/><line x1="0" y1="210" x2="1200" y2="210"/><line x1="0" y1="260" x2="1200" y2="260"/><line x1="0" y1="310" x2="1200" y2="310"/><line x1="0" y1="360" x2="1200" y2="360"/><line x1="0" y1="410" x2="1200" y2="410"/><line x1="0" y1="460" x2="1200" y2="460"/><line x1="0" y1="510" x2="1200" y2="510"/></g>
<rect x="160" y="250" width="160" height="210" rx="10" fill="#fff" stroke="#BFC9D0" stroke-width="6"/><rect x="200" y="200" width="80" height="40" rx="8" fill="#BFE3F5"/>
<rect x="140" y="460" width="220" height="100" rx="12" fill="#fff"/><ellipse cx="250" cy="470" rx="80" ry="16" fill="#E6EEF2"/>
<rect x="520" y="420" width="120" height="140" rx="40" fill="#fff"/><rect x="530" y="360" width="100" height="70" rx="12" fill="#fff"/>
<rect x="780" y="120" width="300" height="440" fill="#DCEFF7" stroke="#BFC9D0" stroke-width="6"/><circle cx="930" cy="170" r="30" fill="#C0C0C0"/>
<rect x="400" y="200" width="40" height="160" rx="10" fill="#F28234" opacity=".7"/><g font-family="Arial,Helvetica,sans-serif" font-size="26" fill="#fff"><rect x="24" y="730" rx="10" width="250" height="46" fill="#041A4B" opacity=".72"/><text x="44" y="762">Imagem ilustrativa</text></g></svg>